<?xml version="1.0" encoding="UTF-8" standalone="no" ?>
<!DOCTYPE svg PUBLIC "-//W3C//DTD SVG 1.1//EN" "http://www.w3.org/Graphics/SVG/1.1/DTD/svg11.dtd">
<svg xmlns="http://www.w3.org/2000/svg" xmlns:xlink="http://www.w3.org/1999/xlink" version="1.1" width="277.1056" height="81.56" xml:space="preserve">
<desc>Created with Fabric.js 1.6.0-rc.1</desc>
<defs></defs>
<g style="stroke: none; stroke-width: 1; stroke-dasharray: none; stroke-linecap: butt; stroke-linejoin: miter; stroke-miterlimit: 10; fill: none; fill-rule: nonzero; opacity: 1;" transform="translate(10.000000000000004 10.010000000000016) scale(0.12 0.12)" >
  <path d="M 491.468 250.784 c -21.734 39.74 -55.445 71.461 -88.047 102.133 c -5.748 5.409 -11.167 10.507 -16.566 15.686 c -20.225 19.425 -40.699 38.14 -60.504 56.255 c -19.675 17.975 -40.009 36.57 -59.964 55.735 L 256 490.571 l -10.387 -9.977 c -19.955 -19.165 -40.289 -37.76 -59.964 -55.735 c -19.805 -18.115 -40.279 -36.83 -60.504 -56.255 c -5.399 -5.179 -10.817 -10.277 -16.566 -15.686 c -32.601 -30.672 -66.313 -62.394 -88.047 -102.133 C -7.57 199.397 -6.791 142.342 22.662 94.225 c 36.54 -59.664 87.457 -72.511 123.737 -72.791 c 30.972 -0.24 61.604 8.658 88.617 25.693 L 256 60.274 l 21.024 -13.167 c 26.973 -17.016 57.635 -25.873 88.577 -25.673 c 36.28 0.28 87.197 13.127 123.737 72.791 C 518.791 142.342 519.571 199.397 491.468 250.784 z" style="stroke: none; stroke-width: 1; stroke-dasharray: none; stroke-linecap: butt; stroke-linejoin: miter; stroke-miterlimit: 10; fill: #E70020; fill-rule: nonzero; opacity: 1;" transform=" matrix(1 0 0 1 0 0) " stroke-linecap="round" />
  <path d="M 491.468 250.784 c -21.734 39.74 -55.445 71.461 -88.047 102.133 c -5.748 5.409 -11.167 10.507 -16.566 15.686 c -20.225 19.425 -40.699 38.14 -60.504 56.255 c -19.675 17.975 -40.009 36.57 -59.964 55.735 L 256 490.571 V 60.274 l 21.024 -13.167 c 26.973 -17.016 57.635 -25.873 88.577 -25.673 c 36.28 0.28 87.197 13.127 123.737 72.791 C 518.791 142.342 519.571 199.397 491.468 250.784 z" style="stroke: none; stroke-width: 1; stroke-dasharray: none; stroke-linecap: butt; stroke-linejoin: miter; stroke-miterlimit: 10; fill: #e60923; fill-rule: nonzero; opacity: 1;" transform=" matrix(1 0 0 1 0 0) " stroke-linecap="round" />
</g>
<g style="stroke: none; stroke-width: 1; stroke-dasharray: none; stroke-linecap: butt; stroke-linejoin: miter; stroke-miterlimit: 10; fill: none; fill-rule: nonzero; opacity: 1;" transform="translate(140 10.000000000000004) scale(0.12 0.12)" >
  <polygon points="452.17,256 256,512 59.83,256 256,0 " style="stroke: none; stroke-width: 1; stroke-dasharray: none; stroke-linecap: butt; stroke-linejoin: miter; stroke-miterlimit: 10; fill: #E70020; fill-rule: nonzero; opacity: 1;" transform="  matrix(1 0 0 1 0 0) "/>
  <polygon points="452.17,256 256,512 256,0 " style="stroke: none; stroke-width: 1; stroke-dasharray: none; stroke-linecap: butt; stroke-linejoin: miter; stroke-miterlimit: 10; fill: #e60012; fill-rule: nonzero; opacity: 1;" transform="  matrix(1 0 0 1 0 0) "/>
</g>
<g style="stroke: none; stroke-width: 1; stroke-dasharray: none; stroke-linecap: butt; stroke-linejoin: miter; stroke-miterlimit: 10; fill: none; fill-rule: nonzero; opacity: 1;" transform="translate(85 11.059999999999999) scale(0.11 0.11)" >
  <path d="M 497.946 343.61 c -6.26 36.31 -25.72 68.13 -54.78 89.62 c -29.27 21.63 -64.75 30.2 -99.9 24.14 c -11.94 -2.06 -23.45 -5.77 -34.24 -11 c 3.37 10.83 7.25 17 10.6 19.36 l 6.37 4.48 V 512 h -140 v -41.79 l 6.37 -4.48 c 3.35 -2.36 7.23 -8.53 10.6 -19.36 c -10.79 5.23 -22.3 8.94 -34.24 11 c -35.15 6.06 -70.63 -2.51 -99.9 -24.14 c -29.06 -21.49 -48.52 -53.31 -54.77 -89.62 c -6.26 -36.31 1.41 -72.81 21.6 -102.79 c 20.33 -30.18 50.89 -50.14 86.05 -56.2 c 2.08 -0.36 4.17 -0.67 6.26 -0.92 c -6.82 -15.95 -10.36 -33.08 -10.36 -50.6 c 0 -73.39 62.08 -133.1 138.39 -133.1 s 138.39 59.71 138.39 133.1 c 0 17.52 -3.54 34.66 -10.36 50.6 c 2.1 0.25 4.18 0.56 6.26 0.92 c 35.16 6.06 65.72 26.02 86.05 56.2 C 496.526 270.8 504.206 307.3 497.946 343.61 z" style="stroke: none; stroke-width: 1; stroke-dasharray: none; stroke-linecap: butt; stroke-linejoin: miter; stroke-miterlimit: 10; fill: #000003; fill-rule: nonzero; opacity: 1;" transform=" matrix(1 0 0 1 0 0) " stroke-linecap="round" />
  <path d="M 497.946 343.61 c -6.26 36.31 -25.72 68.13 -54.78 89.62 c -29.27 21.63 -64.75 30.2 -99.9 24.14 c -11.94 -2.06 -23.45 -5.77 -34.24 -11 c 3.37 10.83 7.25 17 10.6 19.36 l 6.37 4.48 V 512 h -70 V 0 c 76.31 0 138.39 59.71 138.39 133.1 c 0 17.52 -3.54 34.66 -10.36 50.6 c 2.1 0.25 4.18 0.56 6.26 0.92 c 35.16 6.06 65.72 26.02 86.05 56.2 C 496.526 270.8 504.206 307.3 497.946 343.61 z" style="stroke: none; stroke-width: 1; stroke-dasharray: none; stroke-linecap: butt; stroke-linejoin: miter; stroke-miterlimit: 10; fill: #000003; fill-rule: nonzero; opacity: 1;" transform=" matrix(1 0 0 1 0 0) " stroke-linecap="round" />
</g>
<g style="stroke: none; stroke-width: 1; stroke-dasharray: none; stroke-linecap: butt; stroke-linejoin: miter; stroke-miterlimit: 10; fill: none; fill-rule: nonzero; opacity: 1;" transform="translate(212 11.580000000000009) scale(0.11 0.11)" >
  <path d="M 478.559 378.366 c -34.932 57.046 -83.622 69.333 -118.314 69.593 c -18.031 0.14 -36.083 -3.012 -53.263 -9.196 c 3.772 15.59 8.615 24.075 12.688 26.937 l 6.374 4.483 V 512 H 185.956 v -41.816 l 6.374 -4.483 c 4.073 -2.862 8.916 -11.347 12.688 -26.937 c -17.181 6.184 -35.222 9.336 -53.263 9.196 c -34.692 -0.26 -83.382 -12.548 -118.314 -69.593 C 5.283 332.378 4.543 277.834 31.4 228.733 c 20.723 -37.904 52.833 -68.113 83.882 -97.331 c 5.463 -5.133 10.617 -9.986 15.75 -14.909 c 19.242 -18.482 38.724 -36.293 57.556 -53.513 c 18.702 -17.101 38.044 -34.782 57.016 -53.003 L 256 0 l 10.397 9.976 c 18.972 18.221 38.314 35.902 57.016 53.003 c 18.832 17.221 38.314 35.032 57.556 53.513 c 5.133 4.923 10.286 9.776 15.75 14.909 c 31.049 29.218 63.159 59.427 83.882 97.331 C 507.457 277.834 506.717 332.378 478.559 378.366 z" style="stroke: none; stroke-width: 1; stroke-dasharray: none; stroke-linecap: butt; stroke-linejoin: miter; stroke-miterlimit: 10; fill: #000005; fill-rule: nonzero; opacity: 1;" transform=" matrix(1 0 0 1 0 0) " stroke-linecap="round" />
  <path d="M 478.559 378.366 c -34.932 57.046 -83.622 69.333 -118.314 69.593 c -18.031 0.14 -36.083 -3.012 -53.263 -9.196 c 3.772 15.59 8.615 24.075 12.688 26.937 l 6.374 4.483 V 512 H 256 V 0 l 10.397 9.976 c 18.972 18.221 38.314 35.902 57.016 53.003 c 18.832 17.221 38.314 35.032 57.556 53.513 c 5.133 4.923 10.286 9.776 15.75 14.909 c 31.049 29.218 63.159 59.427 83.882 97.331 C 507.457 277.834 506.717 332.378 478.559 378.366 z" style="stroke: none; stroke-width: 1; stroke-dasharray: none; stroke-linecap: butt; stroke-linejoin: miter; stroke-miterlimit: 10; fill: #000005; fill-rule: nonzero; opacity: 1;" transform=" matrix(1 0 0 1 0 0) " stroke-linecap="round" />
</g>
</svg>